<svg id="logo" xmlns="http://www.w3.org/2000/svg" width="50.219" height="50.219" viewBox="0 0 50.219 50.219">
  <defs>
    <style>
      .cls-1 {
        fill: #690;
      }

      .cls-1, .cls-2 {
        fill-rule: evenodd;
      }

      .cls-2 {
        fill: #66a300;
      }
    </style>
  </defs>
  <path class="cls-1" d="M0,25.106A25.106,25.106,0,1,0,25.106,0,25.134,25.134,0,0,0,0,25.106ZM3.008,25A21.989,21.989,0,1,1,25,46.986,22.014,22.014,0,0,1,3.008,25Z"/>
  <path id="Rounded_Rectangle_1" data-name="Rounded Rectangle 1" class="cls-2" d="M15.866,19.507l11.7-9.644a4.684,4.684,0,0,1,6.427.9,4.418,4.418,0,0,1-.163,6.333L22.13,26.74a4.684,4.684,0,0,1-6.427-.9A4.418,4.418,0,0,1,15.866,19.507Z"/>
  <path id="Rounded_Rectangle_1_copy" data-name="Rounded Rectangle 1 copy" class="cls-2" d="M15.866,33.673l11.7-9.644a4.684,4.684,0,0,1,6.427.9,4.418,4.418,0,0,1-.163,6.333l-11.7,9.644a4.684,4.684,0,0,1-6.427-.9A4.418,4.418,0,0,1,15.866,33.673Z"/>
</svg>
