<?xml version="1.0" encoding="utf-8"?>
<!-- Generator: Adobe Illustrator 24.0.1, SVG Export Plug-In . SVG Version: 6.00 Build 0)  -->
<svg version="1.1" id="logo" xmlns="http://www.w3.org/2000/svg" xmlns:xlink="http://www.w3.org/1999/xlink" x="0px" y="0px"
	 viewBox="0 0 249.9 250.8" style="enable-background:new 0 0 249.9 250.8;" xml:space="preserve">
<style type="text/css">
	.st0{fill-rule:evenodd;clip-rule:evenodd;fill:#FFFFFF;}
</style>
<path class="st0" d="M0,125.8c0,69,56,125,125,125s125-56,125-125s-56-125-125-125C56,0.8,0.1,56.8,0,125.8z M15,125.2
	C15,64.8,64,15.8,124.4,15.7s109.5,49,109.5,109.5s-49,109.5-109.5,109.5l0,0C64,234.6,15.1,185.7,15,125.2z"/>
<path id="Rounded_Rectangle_1" class="st0" d="M81.8,98.6l55.9-44.2c9.7-6.7,23.3-4.9,30.7,4.1c8.1,8,8,20.8-0.3,28.6
	c-0.1,0.1-0.3,0.3-0.4,0.4l-55.9,44.2c-9.7,6.7-23.3,4.9-30.7-4.1c-8.1-8-8-20.8,0.3-28.6C81.5,98.9,81.7,98.7,81.8,98.6z"/>
<path id="Rounded_Rectangle_1_copy" class="st0" d="M81.8,163.5l55.9-44.2c9.7-6.7,23.3-4.9,30.7,4.1c8.1,8,8,20.8-0.3,28.6
	c-0.1,0.1-0.3,0.3-0.4,0.4l-55.9,44.2c-9.7,6.7-23.3,4.9-30.7-4.1c-8.1-8-8-20.8,0.3-28.6C81.5,163.7,81.7,163.6,81.8,163.5z"/>
</svg>
