<?xml version="1.0" encoding="utf-8"?>
<!-- Generator: Adobe Illustrator 24.0.1, SVG Export Plug-In . SVG Version: 6.00 Build 0)  -->
<svg version="1.1" id="Layer_1" xmlns="http://www.w3.org/2000/svg" xmlns:xlink="http://www.w3.org/1999/xlink" x="0px" y="0px"
	 viewBox="0 0 218.3 177" style="enable-background:new 0 0 218.3 177;" xml:space="preserve">
<style type="text/css">
	.st0{fill:#CAD7D9;}
	.st1{fill:#FEFEFE;}
	.st2{fill:#CCD8DA;}
</style>
<g>
	<path class="st0" d="M109.1,177c-33.2,0-66.4,0-99.6,0c-7.2,0-9.6-2.3-9.6-9.4C0,114.9,0,62.3,0,9.7C0,2.7,2.7,0,9.8,0
		C76,0,142.3,0,208.6,0c6.9,0,9.7,2.8,9.7,9.6c0,52.8,0,105.6,0,158.4c0,6-3,9-9,9C175.9,177,142.5,177,109.1,177z M108.9,171
		c32.4,0,64.8,0,97.2,0c4.5,0,6.1-1.5,6.3-6c0-0.7,0-1.4,0-2.1c0-43.8,0-87.7,0-131.5c0-1,0.1-2-0.1-3c-0.6-4.2-2.3-5.7-6.5-5.7
		c-64.4,0-128.8,0-193.2,0c-5,0-6.7,1.7-6.7,6.6C6,74.5,6,119.7,6,165c0,4.5,1.5,6,6.1,6C44.3,171,76.6,171,108.9,171z M25.7,7.8
		c-2.7,0-4.2,1.5-4.2,4.2c0,2.7,1.3,4.1,3.9,4.2c2.8,0,4.4-1.4,4.5-4C30,9.5,28.4,7.8,25.7,7.8z M38.7,16.1c2.3-0.1,4.4-2.3,4.3-4.4
		c-0.1-2.1-2.3-4-4.4-4c-2.3,0-4.5,2.1-4.4,4.3C34.2,14.2,36.4,16.2,38.7,16.1z M16.8,11.9c0-2.6-1.8-4.2-4.4-4.1
		c-2.5,0.1-4,1.8-4,4.3c0,2.6,1.8,4.2,4.4,4.1C15.3,16,16.8,14.4,16.8,11.9z"/>
	<path class="st1" d="M108.9,171c-32.3,0-64.6,0-96.9,0c-4.6,0-6.1-1.5-6.1-6c0-45.2,0-90.4,0-135.7c0-4.9,1.6-6.6,6.7-6.6
		c64.4,0,128.8,0,193.2,0c4.3,0,6,1.5,6.5,5.7c0.1,1,0.1,2,0.1,3c0,43.8,0,87.7,0,131.5c0,0.7,0,1.4,0,2.1c-0.2,4.5-1.8,6-6.3,6
		C173.7,171,141.3,171,108.9,171z M90.3,83.5c0.1-2.5-0.1-4.9-2-7c-1.1-1.3-2-1.3-3.2-0.4c-5.2,4.1-11,6.6-17.6,7.1
		c-1.7,0.1-2.5,1.1-2.1,2.8c1.2,6.1,7.4,10.7,13.8,10.2C84.9,95.8,91.3,90.3,90.3,83.5z M136.9,96.2c7.6,0.1,13-4,14.3-9.4
		c0.6-2.3-0.1-3.5-2.7-3.7c-6-0.6-11.6-2.7-16.2-6.7c-1.9-1.7-3.2-1.1-4.3,0.8c-2.4,4.2-2.6,8.5-0.2,12.7
		C130.3,93.9,133.9,96.1,136.9,96.2z M109,118.3c-8.5,0.9-16.3,3.5-22.9,9.4c-1.4,1.3-2.6,2.6-0.8,4.5c1.8,1.8,3,0.8,4.5-0.5
		c5.4-4.6,11.6-7.2,18.7-7.4c7.1-0.2,13.1,2.5,18.4,7.1c1.4,1.2,2.7,2.9,4.8,0.8c2.2-2.3,0.3-3.6-1.2-4.9
		C124.6,121.6,117.3,118.9,109,118.3z M61.3,77.6c8.7-0.9,16.5-4.2,22.9-10.2c1.2-1.1,2.4-2.1,2.9-3.7c0.4-1.3,0.4-2.5-1.1-3.3
		c-1.4-0.8-2.8-0.8-3.7,0.7c-2.7,4.4-7.1,6.6-11.6,8.5c-3.2,1.4-6.5,3.2-10.2,2.5c-2.3-0.4-3.7,0.4-4.1,2.3
		c-0.5,2.2,1.4,2.8,3.1,3.3C60.1,77.7,60.7,77.6,61.3,77.6z M155.5,77.7c1.3,0,2.6,0,3.8-0.8c1.1-0.7,1.9-1.8,1.4-3
		c-0.5-1.3-1.5-2.2-3.2-2.2c-8.9,0.3-16-3.7-22-9.9c-1.5-1.6-2.6-2.9-4.6-1.4c-2.1,1.6-1.1,3.5,0.2,4.9
		C137.6,72.8,146,76.3,155.5,77.7z"/>
	<path class="st1" d="M25.7,7.8c2.6,0,4.3,1.7,4.2,4.4c-0.1,2.6-1.7,4.1-4.5,4c-2.6,0-3.9-1.4-3.9-4.2C21.5,9.3,23,7.7,25.7,7.8z"/>
	<path class="st1" d="M38.7,16.1c-2.3,0.1-4.5-1.9-4.6-4.1c0-2.2,2.1-4.3,4.4-4.3c2.2,0,4.3,1.9,4.4,4C43.2,13.9,41,16.1,38.7,16.1z
		"/>
	<path class="st1" d="M16.8,11.9c0,2.5-1.5,4.2-4,4.3c-2.6,0.1-4.4-1.5-4.4-4.1c0-2.5,1.5-4.2,4-4.3C15,7.6,16.7,9.2,16.8,11.9z"/>
	<path class="st0" d="M90.3,83.5c1,6.8-5.5,12.3-11.2,12.7c-6.5,0.5-12.7-4.1-13.8-10.2c-0.3-1.8,0.4-2.7,2.1-2.8
		c6.6-0.5,12.5-3,17.6-7.1c1.3-1,2.1-0.9,3.2,0.4C90.2,78.6,90.5,81,90.3,83.5z M89.1,86c0-2.8-1.6-4.2-4.1-4.1
		c-2.4,0.1-3.6,1.3-3.7,3.7c-0.1,2.4,1.7,4.2,4.1,4C87.9,89.4,89.1,87.9,89.1,86z"/>
	<path class="st0" d="M136.9,96.2c-3-0.1-6.6-2.3-9-6.4c-2.5-4.2-2.2-8.5,0.2-12.7c1.1-1.9,2.4-2.4,4.3-0.8c4.6,4,10.2,6.1,16.2,6.7
		c2.6,0.3,3.2,1.4,2.7,3.7C149.9,92.2,144.5,96.3,136.9,96.2z M132.1,81.9c-2.4-0.1-4,1.5-4,3.8c0,1.9,2,4,4.1,4
		c2.4,0,3.6-1.3,3.7-3.7C135.9,83.4,134.5,81.9,132.1,81.9z"/>
	<path class="st2" d="M109,118.3c8.3,0.6,15.6,3.3,21.7,9c1.4,1.3,3.3,2.6,1.2,4.9c-2,2.1-3.4,0.4-4.8-0.8
		c-5.3-4.5-11.3-7.3-18.4-7.1c-7.1,0.2-13.3,2.8-18.7,7.4c-1.5,1.3-2.8,2.3-4.5,0.5c-1.8-1.9-0.7-3.2,0.8-4.5
		C92.7,121.9,100.5,119.2,109,118.3z"/>
	<path class="st2" d="M61.3,77.6c-0.6,0-1.2,0.1-1.8,0c-1.7-0.5-3.6-1.1-3.1-3.3c0.4-1.9,1.8-2.7,4.1-2.3c3.7,0.7,7-1.1,10.2-2.5
		c4.5-1.9,8.9-4.1,11.6-8.5c0.9-1.4,2.2-1.4,3.7-0.7c1.5,0.8,1.5,2,1.1,3.3c-0.5,1.6-1.8,2.6-2.9,3.7C77.7,73.4,70,76.7,61.3,77.6z"
		/>
	<path class="st2" d="M155.5,77.7c-9.5-1.4-17.9-4.9-24.4-12.3c-1.3-1.4-2.3-3.3-0.2-4.9c2-1.5,3.1-0.1,4.6,1.4
		c5.9,6.2,13,10.2,22,9.9c1.7-0.1,2.7,0.8,3.2,2.2c0.5,1.2-0.3,2.3-1.4,3C158.1,77.7,156.8,77.7,155.5,77.7z"/>
	<path class="st1" d="M89.1,86c-0.1,1.9-1.2,3.5-3.7,3.6c-2.3,0.2-4.1-1.6-4.1-4c0.1-2.3,1.3-3.6,3.7-3.7
		C87.6,81.8,89.1,83.2,89.1,86z"/>
	<path class="st1" d="M132.1,81.9c2.5,0.1,3.8,1.5,3.7,4c-0.1,2.4-1.3,3.7-3.7,3.7c-2,0-4.1-2-4.1-4
		C128.1,83.4,129.7,81.8,132.1,81.9z"/>
</g>
</svg>
